# xmcd
#
# Track frame offsets: 
#        150
#        15482
#        28039
#        38838
#        47661
#        64962
#        91952
#        102349
#        128132
#
# Disc length: 1883 seconds
#
# Revision: 1
# Processed by: cddbd v1.5.2PL0 Copyright (c) Steve Scherf et al.
# Submitted via: ExactAudioCopyFreeDBPlugin 1.0
#
DISCID=6f075909
DTITLE=Talmud Beach ja Faarao Pirttikangas - Talmud Beach ja Faarao Pi
DTITLE=rttikangas
DYEAR=2017
DGENRE=Blues
TTITLE0=Myllypuron Mäntä
TTITLE1=Matkaa Teen
TTITLE2=Jumisen Raitti
TTITLE3=More Harissa
TTITLE4=Kolme Kulmaa
TTITLE5=Aron Mies
TTITLE6=Jeesus
TTITLE7=Villit Pupillit
TTITLE8=Uinu Nyt
EXTD=
EXTT0=
EXTT1=
EXTT2=
EXTT3=
EXTT4=
EXTT5=
EXTT6=
EXTT7=
EXTT8=
PLAYORDER=
